<?xml version="1.0" encoding="UTF-8" standalone="no"?>
<svg
   xmlns:dc="http://purl.org/dc/elements/1.1/"
   xmlns:cc="http://creativecommons.org/ns#"
   xmlns:rdf="http://www.w3.org/1999/02/22-rdf-syntax-ns#"
   xmlns:svg="http://www.w3.org/2000/svg"
   xmlns="http://www.w3.org/2000/svg"
   xmlns:xlink="http://www.w3.org/1999/xlink"
   xmlns:sodipodi="http://sodipodi.sourceforge.net/DTD/sodipodi-0.dtd"
   xmlns:inkscape="http://www.inkscape.org/namespaces/inkscape"
   inkscape:version="1.0 (4035a4f, 2020-05-01)"
   inkscape:export-ydpi="96"
   inkscape:export-xdpi="96"
   inkscape:export-filename="/datos/Sync/atareao.es/branding/fondo-youtube-focal-fossa.png"
   sodipodi:docname="fondo-youtube-focal-fossa.svg"
   viewBox="0 0 2560 1440"
   height="1440"
   width="2560"
   id="svg1005"
   version="1.1">
  <metadata
     id="metadata1011">
    <rdf:RDF>
      <cc:Work
         rdf:about="">
        <dc:format>image/svg+xml</dc:format>
        <dc:type
           rdf:resource="http://purl.org/dc/dcmitype/StillImage" />
        <dc:title></dc:title>
      </cc:Work>
    </rdf:RDF>
  </metadata>
  <defs
     id="defs1009">
    <linearGradient
       id="linearGradient1590"
       inkscape:collect="always">
      <stop
         id="stop1586"
         offset="0"
         style="stop-color:#eb5821;stop-opacity:1" />
      <stop
         id="stop1588"
         offset="1"
         style="stop-color:#602651;stop-opacity:1" />
    </linearGradient>
    <linearGradient
       gradientTransform="translate(711.4925,-382.05023)"
       y2="760.02966"
       x2="-706.34747"
       y1="406.02966"
       x1="793.65253"
       gradientUnits="userSpaceOnUse"
       id="linearGradient1594"
       xlink:href="#linearGradient1590"
       inkscape:collect="always" />
    <linearGradient
       y2="760.02966"
       x2="-706.34747"
       y1="406.02966"
       x1="793.65253"
       gradientTransform="matrix(1.7066667,0,0,4.0677967,1205.4997,-1651.6461)"
       gradientUnits="userSpaceOnUse"
       id="linearGradient2152"
       xlink:href="#linearGradient1590"
       inkscape:collect="always" />
  </defs>
  <sodipodi:namedview
     inkscape:document-rotation="0"
     inkscape:current-layer="svg1005"
     inkscape:window-maximized="1"
     inkscape:window-y="27"
     inkscape:window-x="72"
     inkscape:cy="1049.3721"
     inkscape:cx="908.88962"
     inkscape:zoom="0.27748383"
     fit-margin-bottom="0"
     fit-margin-right="0"
     fit-margin-left="0"
     fit-margin-top="0"
     showgrid="false"
     id="namedview1007"
     inkscape:window-height="1016"
     inkscape:window-width="1848"
     inkscape:pageshadow="2"
     inkscape:pageopacity="0"
     guidetolerance="10"
     gridtolerance="10"
     objecttolerance="10"
     borderopacity="1"
     bordercolor="#666666"
     pagecolor="#ffffff" />
  <rect
     y="-2.8421709e-14"
     x="-5.9631349e-09"
     height="1440"
     width="2560"
     id="rect1574"
     style="opacity:1;fill:url(#linearGradient2152);fill-opacity:1;fill-rule:nonzero;stroke:none;stroke-width:29.8753;stroke-miterlimit:4;stroke-dasharray:none;stroke-opacity:1" />
  <path
     inkscape:connector-curvature="0"
     id="path826"
     d="m 1897.7071,844.2345 c -0.6682,-1.96485 -28.4798,-133.55675 -28.271,-133.76552 0.1307,-0.13074 10.2638,4.41483 22.5179,10.10129 l 22.2803,10.33904 -0.1609,26.27257 c -0.088,14.44991 -0.3267,38.39797 -0.5293,53.2179 l -0.3685,26.94529 -7.2523,3.82748 c -3.9888,2.10509 -7.4106,3.82745 -7.604,3.82745 -0.1936,0 -0.469,-0.34446 -0.6121,-0.7655 z m 29.3874,-3.16502 -7.3487,-3.91167 0.2401,-28.68886 c 0.1321,-15.77887 0.4076,-38.78623 0.6124,-51.12748 l 0.3723,-22.43863 13.1665,8.5574 c 7.2415,4.70657 13.4891,8.74126 13.8834,8.96597 0.5269,0.30029 -0.9674,12.09463 -5.6382,44.5009 -7.1117,49.34133 -6.9142,48.07642 -7.5075,48.06346 -0.2373,-0.005 -3.7385,-1.76969 -7.7803,-3.92109 z m -97.983,-0.056 c -3.0313,-1.82546 -5.7514,-3.40871 -6.0447,-3.51836 -0.2932,-0.1097 -1.609,-6.00752 -2.9241,-13.10639 l -2.391,-12.90704 11.8039,-25.13001 c 6.4921,-13.82151 11.8902,-25.04762 11.9957,-24.94696 0.2351,0.22451 -5.2959,78.20995 -5.7444,80.99255 -0.1763,1.09465 -0.5149,1.97788 -0.7522,1.96274 -0.2374,-0.0163 -2.9118,-1.52108 -5.9432,-3.34653 z m -19.7789,-11.78263 c 1.7108,-3.62078 3.2983,-6.79599 3.5278,-7.05603 0.2294,-0.26003 0.9109,2.34818 1.5143,5.79603 0.6036,3.44786 1.2332,6.62306 1.3993,7.05602 0.2308,0.60116 -0.8624,0.78721 -4.6249,0.78721 h -4.9271 z m 33.5371,5.81774 c -0.012,-0.42103 1.4063,-20.88262 3.1506,-45.47021 l 3.1715,-44.70473 7.051,-15.16165 c 3.878,-8.33891 7.13,-15.08248 7.2269,-14.98572 0.097,0.0968 5.8351,26.76107 12.7518,59.25401 6.9168,32.49292 12.724,59.69807 12.905,60.45591 l 0.3291,1.37788 h -23.2826 c -18.2067,0 -23.2872,-0.16688 -23.3033,-0.76549 z m -40.3973,-6.88834 c 0,-0.28009 -3.7502,-22.50946 -8.3338,-49.39864 l -8.3339,-48.88938 5.95,-7.9622 c 3.2726,-4.37921 6.1485,-7.9622 6.391,-7.9622 0.2425,0 6.7061,14.44285 14.3635,32.09521 l 13.9228,32.09521 -11.7451,25.01049 c -6.4598,13.75576 -11.8507,25.12529 -11.9797,25.26565 -0.1292,0.14026 -0.2348,0.0259 -0.2348,-0.25409 z m 131.5044,-92.3285 -11.4895,-7.45929 6.8763,-6.89582 c 3.7819,-3.79269 7.0612,-6.69377 7.2874,-6.44684 0.6418,0.70085 9.2207,27.09991 9.0063,27.71429 -0.1051,0.30083 -5.3613,-2.80971 -11.6805,-6.91234 z m -26.6025,-15.01993 c -4.7833,-2.23588 -8.5919,-4.17041 -8.4633,-4.29895 0.1958,-0.19579 31.8846,-6.85184 32.6209,-6.85184 0.1349,0 -3.0025,3.44471 -6.9719,7.65492 -3.9695,4.2102 -7.5032,7.63381 -7.8528,7.60803 -0.3497,-0.0258 -4.5494,-1.87626 -9.3329,-4.11216 z m -118.1672,-7.17019 c 0.1898,-0.67363 1.3431,-5.63401 2.5633,-11.02308 1.2201,-5.38906 2.3481,-10.26052 2.5068,-10.82546 0.1955,-0.69653 2.944,-1.91487 8.5385,-3.78499 4.5375,-1.5168 8.0545,-2.43247 7.8155,-2.0348 -0.6527,1.086 -20.482,27.5735 -21.1718,28.28072 -0.3911,0.40101 -0.4782,0.18964 -0.2523,-0.61239 z m 75.2936,-12.78027 c -13.2072,-6.13713 -24.1762,-11.32149 -24.3755,-11.52078 -0.3361,-0.3361 28.3715,-45.25837 29.9285,-46.83267 0.528,-0.53391 4.8206,4.55862 17.4213,20.66828 15.1503,19.369 16.8882,21.37675 18.5033,21.37675 1.1086,0 2.0123,-0.42897 2.3898,-1.13438 0.334,-0.62391 3.9262,-12.40482 7.9827,-26.17983 4.0565,-13.77499 7.5826,-25.53508 7.8358,-26.13353 0.3847,-0.90933 4.3638,2.04874 24.2181,18.00314 l 23.7577,19.09125 -6.5966,6.79879 c -16.5843,17.09235 -26.1082,26.70158 -26.4645,26.70158 -0.321,0 -45.4479,9.1876 -49.3628,10.05002 -0.7363,0.16221 -10.801,-4.18007 -25.2378,-10.88862 z m -26.5375,-21.21574 c -0.1759,-1.8663 -1.6339,-64.03718 -1.5051,-64.17569 0.3044,-0.32729 29.0517,20.98337 29.0717,21.55118 0.027,0.75665 -27.501,43.32103 -27.5666,42.62451 z m 52.2583,-23.13564 c -7.8179,-9.97593 -14.1262,-18.22633 -14.0183,-18.33421 0.2914,-0.29137 41.5614,-9.39455 41.7361,-9.20597 0.1528,0.165 -13.0646,45.24593 -13.3475,45.52476 -0.086,0.0844 -6.5523,-8.00864 -14.3703,-17.98458 z m 57.3882,-16.10917 c -10.9465,-8.78859 -20.1529,-16.21687 -20.4586,-16.50729 -0.3278,-0.31137 1.6767,-6.43723 4.885,-14.92878 2.9924,-7.9204 5.6124,-14.20145 5.8223,-13.95789 0.2099,0.24356 3.5697,7.05669 7.4663,15.14029 3.8966,8.08359 10.5351,21.79355 14.7522,30.46657 4.2171,8.67301 7.6153,15.7685 7.5515,15.76773 -0.063,-6.1e-4 -9.0721,-7.19205 -20.0187,-15.98063 z"
     style="fill:#ffffff;fill-opacity:1;stroke-width:0.612393" />
</svg>
