<?xml version="1.0" encoding="UTF-8" standalone="no"?>
<svg
   xmlns:dc="http://purl.org/dc/elements/1.1/"
   xmlns:cc="http://creativecommons.org/ns#"
   xmlns:rdf="http://www.w3.org/1999/02/22-rdf-syntax-ns#"
   xmlns:svg="http://www.w3.org/2000/svg"
   xmlns="http://www.w3.org/2000/svg"
   xmlns:xlink="http://www.w3.org/1999/xlink"
   xmlns:sodipodi="http://sodipodi.sourceforge.net/DTD/sodipodi-0.dtd"
   xmlns:inkscape="http://www.inkscape.org/namespaces/inkscape"
   inkscape:version="1.0.2 (1.0.2+r75+1)"
   inkscape:export-ydpi="96"
   inkscape:export-xdpi="96"
   inkscape:export-filename="/datos/Sync/atareao.es/branding/fondo-youtube-gorilla.png"
   sodipodi:docname="impish-indri.svg"
   viewBox="0 0 2560 1440"
   height="1440"
   width="2560"
   id="svg1005"
   version="1.1">
  <metadata
     id="metadata1011">
    <rdf:RDF>
      <cc:Work
         rdf:about="">
        <dc:format>image/svg+xml</dc:format>
        <dc:type
           rdf:resource="http://purl.org/dc/dcmitype/StillImage" />
        <dc:title></dc:title>
      </cc:Work>
    </rdf:RDF>
  </metadata>
  <defs
     id="defs1009">
    <linearGradient
       id="linearGradient1590"
       inkscape:collect="always">
      <stop
         id="stop1586"
         offset="0"
         style="stop-color:#eb5821;stop-opacity:1" />
      <stop
         id="stop1588"
         offset="1"
         style="stop-color:#602651;stop-opacity:1" />
    </linearGradient>
    <linearGradient
       gradientTransform="translate(711.4925,-382.05023)"
       y2="760.02966"
       x2="-706.34747"
       y1="406.02966"
       x1="793.65253"
       gradientUnits="userSpaceOnUse"
       id="linearGradient1594"
       xlink:href="#linearGradient1590"
       inkscape:collect="always" />
    <linearGradient
       y2="760.02966"
       x2="-706.34747"
       y1="406.02966"
       x1="793.65253"
       gradientTransform="matrix(1.7066667,0,0,4.0677967,1205.4997,-1651.6461)"
       gradientUnits="userSpaceOnUse"
       id="linearGradient2152"
       xlink:href="#linearGradient1590"
       inkscape:collect="always" />
  </defs>
  <sodipodi:namedview
     inkscape:document-rotation="0"
     inkscape:current-layer="svg1005"
     inkscape:window-maximized="0"
     inkscape:window-y="150"
     inkscape:window-x="1964"
     inkscape:cy="1661.1331"
     inkscape:cx="-2685.7477"
     inkscape:zoom="0.087791496"
     fit-margin-bottom="0"
     fit-margin-right="0"
     fit-margin-left="0"
     fit-margin-top="0"
     showgrid="false"
     id="namedview1007"
     inkscape:window-height="752"
     inkscape:window-width="1514"
     inkscape:pageshadow="2"
     inkscape:pageopacity="0"
     guidetolerance="10"
     gridtolerance="10"
     objecttolerance="10"
     borderopacity="1"
     bordercolor="#666666"
     pagecolor="#ffffff" />
  <rect
     y="0"
     x="0"
     height="1440"
     width="2560"
     id="rect1574"
     style="opacity:1;fill:url(#linearGradient2152);fill-opacity:1;fill-rule:nonzero;stroke:none;stroke-width:29.8753;stroke-miterlimit:4;stroke-dasharray:none;stroke-opacity:1" />
  <g
     id="g974"
     transform="matrix(0.729,0,0,0.729,1087.951,124.23952)">
    <path
       style="fill:#ffffff;fill-opacity:1;stroke:none;stroke-width:1px;stroke-linecap:butt;stroke-linejoin:miter;stroke-opacity:1"
       d="m 871.85836,528.02158 -19.49882,39.2778 -2.07442,29.37104 -42.23183,-30.35278 15.60043,-54.41449 z"
       id="path890"
       sodipodi:nodetypes="cccccc" />
    <path
       style="fill:#ffffff;fill-opacity:1;stroke:none;stroke-width:1px;stroke-linecap:butt;stroke-linejoin:miter;stroke-opacity:1"
       d="m 953.72191,523.2155 49.90769,73.30512 28.3072,-65.00813 -39.82557,-44.34428 z"
       id="path892"
       sodipodi:nodetypes="ccccc" />
    <path
       id="path894"
       style="fill:#ffffff;fill-opacity:1;stroke:none;stroke-width:1px;stroke-linecap:butt;stroke-linejoin:miter;stroke-opacity:1"
       d="m 917.87109,520.92969 -13.72851,2.79492 c 0.38164,10.92522 0.9433,26.80856 1.23047,33.55664 l 26.76172,2.16797 16.75976,9.63672 6.95899,19.67968 26.89453,-10.30273 -36.44727,-53.58008 z m -19.5957,3.99023 -20.93945,4.26172 -18.91992,40.06641 -3.25196,33.55664 13.375,29.74023 26.73242,-16.77539 -12.93359,-19.86328 2.92578,-15.91211 14.01172,-20.90039 z m 88.00781,58.74024 -28.56836,10.37304 8.875,25.10157 -23.14843,11.28711 18.97265,33.15234 22.80664,-12.23242 14.39453,-48.08399 z m -87.25195,37.88476 -28.10352,16.31055 16.14063,35.89062 22.80273,-4.95703 31.07227,6.30274 15.94531,-8.55274 -20.50781,-32.67383 -22.25977,10.85352 z" />
    <path
       style="fill:#ffffff;fill-opacity:1;stroke:none;stroke-width:1px;stroke-linecap:butt;stroke-linejoin:miter;stroke-opacity:1"
       d="m 882.94077,681.8818 31.6444,-4.58173 27.69204,11.35239 107.76139,182.86272 11.4226,78.7455 -20.2797,23.75866 -28.3795,-71.60679 -25.63303,-49.535 -67.20922,-97.33068 z"
       id="path896"
       sodipodi:nodetypes="cccccccccc" />
    <path
       style="fill:#ffffff;fill-opacity:1;stroke:none;stroke-width:1px;stroke-linecap:butt;stroke-linejoin:miter;stroke-opacity:1"
       d="m 909.30658,757.69648 -15.03543,129.47736 53.89453,149.18446 -34.64331,5.9951 -34.67995,-23.7605 -40.19821,-254.34233 z"
       id="path900"
       sodipodi:nodetypes="ccccccc" />
    <path
       style="fill:#ffffff;fill-opacity:1;stroke:none;stroke-width:1px;stroke-linecap:butt;stroke-linejoin:miter;stroke-opacity:1"
       d="m 1026.7077,811.03226 31.761,56.25535 10.6632,79.38543 38.0136,-7.59054 15.0983,-35.91332 -25.7736,-88.36777 -45.1001,-21.67287 z"
       id="path902"
       sodipodi:nodetypes="cccccccc" />
    <path
       style="fill:#ffffff;fill-opacity:1;stroke:none;stroke-width:1px;stroke-linecap:butt;stroke-linejoin:miter;stroke-opacity:1"
       d="m 947.66988,682.46808 73.34952,121.47516 29.4135,-20.59611 36.6823,-84.1682 -87.72076,-69.91651 -7.41729,27.85358 z"
       id="path904" />
    <path
       style="fill:#ffffff;fill-opacity:1;stroke:none;stroke-width:1px;stroke-linecap:butt;stroke-linejoin:miter;stroke-opacity:1"
       d="m 1093.9228,706.31826 -35.6067,80.39015 41.7329,18.70354 77.3965,-15.31581 -25.9795,-45.97818 z"
       id="path908"
       sodipodi:nodetypes="cccccc" />
    <path
       style="fill:#ffffff;fill-opacity:1;stroke:none;stroke-width:1px;stroke-linecap:butt;stroke-linejoin:miter;stroke-opacity:1"
       d="m 1104.0479,811.95199 27.6534,89.60797 74.5049,42.17471 -0.4973,-76.25074 -24.3083,-70.89281 z"
       id="path910"
       sodipodi:nodetypes="cccccc" />
    <path
       style="fill:#ffffff;fill-opacity:1;stroke:none;stroke-width:1px;stroke-linecap:butt;stroke-linejoin:miter;stroke-opacity:1"
       d="m 1128.5772,909.54406 -50.9061,123.04304 c 0,0 43.0943,28.6355 45.4358,24.8484 2.3414,-3.787 66.3638,-74.89775 66.3638,-74.89775 l 13.4052,-29.70562 z"
       id="path912"
       sodipodi:nodetypes="ccsccc" />
    <path
       style="fill:#ffffff;fill-opacity:1;stroke:none;stroke-width:1px;stroke-linecap:butt;stroke-linejoin:miter;stroke-opacity:1"
       d="m 1035.5639,1021.3205 6.3779,-38.4933 22.1234,-27.35382 42.1126,-10.52565 -35.386,84.62217 z"
       id="path914"
       sodipodi:nodetypes="cccccc" />
    <path
       style="fill:#ffffff;fill-opacity:1;stroke:none;stroke-width:1px;stroke-linecap:butt;stroke-linejoin:miter;stroke-opacity:1"
       d="m 956.08938,1033.2376 73.71722,-11.759 7.0029,-39.22476 -32.6326,-78.52317 -26.00235,-48.28583 -61.52976,-90.05224 -14.63447,122.26591 z"
       id="path916"
       sodipodi:nodetypes="cccccccc" />
    <path
       style="fill:#ffffff;fill-opacity:1;stroke:none;stroke-width:1px;stroke-linecap:butt;stroke-linejoin:miter;stroke-opacity:1"
       d="m 872.89512,684.99271 34.20507,65.42097 -69.60245,7.02912 12.12697,-41.674 z"
       id="path918"
       sodipodi:nodetypes="ccccc" />
    <path
       style="fill:#ffffff;fill-opacity:1;stroke:none;stroke-width:1px;stroke-linecap:butt;stroke-linejoin:miter;stroke-opacity:1"
       d="m 595.07736,995.65241 18.54124,58.75769 c 0,0 93.47396,-82.68921 99.88416,-85.20723 6.41019,-2.51803 144.57421,-14.51579 144.57421,-14.51579 L 835.85916,803.28761 Z"
       id="path920" />
    <path
       style="fill:#ffffff;fill-opacity:1;stroke:none;stroke-width:0.81px;stroke-linecap:butt;stroke-linejoin:miter;stroke-opacity:1"
       d="m 905.2584,565.26056 -12.53832,18.69999 -2.36925,12.88889 25.74346,39.53812 42.50014,-20.72313 -14.33271,-40.53818 -13.57643,-7.80693 z"
       id="path942" />
  </g>
</svg>
